<svg id="Группа_1" data-name="Группа 1" xmlns="http://www.w3.org/2000/svg" width="148" height="38.88" viewBox="0 0 148 38.88">
  <defs>
    <style>
      .cls-1 {
        fill: #a3bbc8;
        fill-rule: evenodd;
      }

      .cls-2 {
        font-size: 36px;
        fill: #436372;
        font-family: Rubik;
        font-weight: 500;
      }
    </style>
  </defs>
  <path id="Path_324" data-name="Path 324" class="cls-1" d="M376.157,5143.67a1.128,1.128,0,0,0,.622.39l48.041,9.8a1.134,1.134,0,0,0,.908-0.21,0.884,0.884,0,0,0,.31-0.81h0l-6.251-37.08a0.961,0.961,0,0,0-.449-0.64,1.328,1.328,0,0,0-.965-0.05l-35.194,14.05a0.86,0.86,0,0,0-.507.45c-0.171.32-6.494,13.08-6.582,13.26A0.793,0.793,0,0,0,376.157,5143.67Zm45.586,6.44-20.05-11.15,10.339-2.15Zm-37.7-18.88,12.522,6.98-17.833,3.71Zm1.662-1.17,31.531-12.59-5.558,17.59-12.372,2.58Zm37.654,18.99-9.779-13.4,4.9-15.52Zm-3.886,1.9-38.051-7.76,17.523-3.65Z" transform="translate(-376 -5115)"/>
  <text id="Glee." class="cls-2" x="64.001" y="32.002">Glee.</text>
</svg>
