<svg xmlns="http://www.w3.org/2000/svg" xmlns:xlink="http://www.w3.org/2000/svg" >

<symbol id="search" viewBox="0 0 15.28 15.281">
<defs>
    <style>
      .cls-1 {
        fill: #243f4d;
        fill-rule: evenodd;
      }
    </style>
  </defs>
  <path id="icon" class="cls-1" d="M1545.7,72.076a0.617,0.617,0,0,1,.75.485,2.583,2.583,0,0,0,.78,1.489,3.036,3.036,0,0,0,1.49.777,0.636,0.636,0,0,1,.49.743,0.649,0.649,0,0,1-.72.515,4.21,4.21,0,0,1-2.14-1.13,4.164,4.164,0,0,1-1.13-2.136A0.6,0.6,0,0,1,1545.7,72.076ZM1548.98,66a6.267,6.267,0,0,1,6.28,6.257,6.136,6.136,0,0,1-.57,2.6l2.34,2.036c1.7,1.746.74,3.266,0.29,3.717-0.42.454-1.99,1.414-3.73-.292l-2.06-2.35A6.261,6.261,0,1,1,1548.98,66Zm5.55,13.517a1.352,1.352,0,0,0,1.88.226,1.313,1.313,0,0,0-.23-1.874l-2.16-1.88a6.236,6.236,0,0,1-1.37,1.34Zm-5.55-2.312a4.948,4.948,0,1,0-4.97-4.948A4.963,4.963,0,0,0,1548.98,77.2Z" transform="translate(-1542.72 -66)"/>
</symbol>

<symbol id="menu" viewBox="0 0 20.03 20.031">
<defs>
    <style>
      .cls-1 {
        fill: #fff;
        fill-rule: evenodd;
      }
    </style>
  </defs>
  <path class="cls-1" d="M1813.15,67.881a2.146,2.146,0,1,1,2.14-2.145A2.145,2.145,0,0,1,1813.15,67.881Zm0,7.869a2.146,2.146,0,1,1,2.14-2.147A2.146,2.146,0,0,1,1813.15,75.75Zm0,7.868a2.146,2.146,0,1,1,2.14-2.146A2.145,2.145,0,0,1,1813.15,83.618Zm7.86-15.737a2.146,2.146,0,1,1,2.15-2.145A2.143,2.143,0,0,1,1821.01,67.881Zm0,7.869a2.146,2.146,0,1,1,2.15-2.147A2.144,2.144,0,0,1,1821.01,75.75Zm0,7.868a2.146,2.146,0,1,1,2.15-2.146A2.143,2.143,0,0,1,1821.01,83.618Zm7.87-15.737a2.146,2.146,0,1,1,2.15-2.145A2.143,2.143,0,0,1,1828.88,67.881Zm0,7.869a2.146,2.146,0,1,1,2.15-2.147A2.144,2.144,0,0,1,1828.88,75.75Zm0,7.868a2.146,2.146,0,1,1,2.15-2.146A2.143,2.143,0,0,1,1828.88,83.618Z" transform="translate(-1811 -63.594)"/>
</symbol>

<symbol id="heart" viewBox="0 0 22 18">
<defs>
    <style>
      .cls-1 {
        fill: #a3bbc8;
        fill-rule: evenodd;
      }
    </style>
  </defs>
  <path id="Forma_1" data-name="Forma 1" class="cls-1" d="M882.99,1569.82a6.208,6.208,0,0,0-1.849-4.1A5.871,5.871,0,0,0,877,1564c-2.311,0-3.948,1.78-4.827,2.74a2.156,2.156,0,0,1-.156.17l-0.083-.09c-0.8-.92-2.476-2.82-4.938-2.82a5.873,5.873,0,0,0-4.139,1.72,6.208,6.208,0,0,0-1.849,4.1,6.845,6.845,0,0,0,1.271,4.34,29.307,29.307,0,0,0,4.763,4.75c1.705,1.41,3.95,3.09,4.965,3.09,1.032,0,3.269-1.68,4.965-3.09a29.234,29.234,0,0,0,4.746-4.75A6.935,6.935,0,0,0,882.99,1569.82Zm-2.376,3.61a27,27,0,0,1-4.431,4.42c-2.406,2-3.831,2.79-4.172,2.82-0.342-.03-1.77-0.83-4.188-2.84a26.78,26.78,0,0,1-4.437-4.4,5.6,5.6,0,0,1-1.054-3.54,4.807,4.807,0,0,1,4.666-4.57c1.863,0,3.216,1.54,3.943,2.37a1.52,1.52,0,0,0,1.059.76,1.731,1.731,0,0,0,1.151-.81c0.794-.87,2.122-2.32,3.851-2.32a4.807,4.807,0,0,1,4.666,4.57A5.528,5.528,0,0,1,880.614,1573.43Z" transform="translate(-861 -1564)"/>
</symbol>

<symbol id="cart" viewBox="0 0 18.94 16.969">
<defs>
    <style>
      .cls-1 {
        fill: #243f4d;
        fill-rule: evenodd;
      }
    </style>
  </defs>
  <path class="cls-1" d="M1721.53,85.978a2.073,2.073,0,1,1,0-4.147h0a2.056,2.056,0,0,1,1.46.6,2.03,2.03,0,0,1,.61,1.466A2.071,2.071,0,0,1,1721.53,85.978Zm0-2.963h0a0.889,0.889,0,1,0,.34,1.71,0.9,0.9,0,0,0,.55-0.824,0.92,0.92,0,0,0-.26-0.629A0.9,0.9,0,0,0,1721.53,83.015Zm8.39,2.963a2.045,2.045,0,0,1-1.46-.607,2.068,2.068,0,0,1,1.46-3.54h0a1.953,1.953,0,0,1,1.47.6,2.085,2.085,0,0,1-.67,3.383A2.093,2.093,0,0,1,1729.92,85.978Zm0-2.963h0a0.978,0.978,0,0,0-.82.548,0.887,0.887,0,0,0,1.16,1.161,0.891,0.891,0,0,0,.29-1.452A0.9,0.9,0,0,0,1729.92,83.015Zm-11.27.164a0.562,0.562,0,0,1-.25-0.056,0.59,0.59,0,0,1-.29-0.787,3.686,3.686,0,0,1,3.05-2.151l-1.05-5.391a0.591,0.591,0,1,1,1.16-.228l1.09,5.578h9.43l1.8-6.771h-13.3a4.346,4.346,0,0,1-4.28-3.693,0.587,0.587,0,0,1,.49-0.673,0.6,0.6,0,0,1,.68.5,3.159,3.159,0,0,0,3.11,2.682h14.07a0.582,0.582,0,0,1,.47.232,0.594,0.594,0,0,1,.11.513l-2.13,7.956a0.59,0.59,0,0,1-.57.44h-10.36a0.03,0.03,0,0,0-.02,0,2.66,2.66,0,0,0-2.68,1.51A0.586,0.586,0,0,1,1718.65,83.178Z" transform="translate(-1716 -69)"/>
</symbol>


</svg>

